<?xml version="1.0" encoding="utf-8"?>
<svg version="1.1" xmlns:xlink="http://www.w3.org/1999/xlink" width="12px" height="12px" viewBox="927 404  12 12" xmlns="http://www.w3.org/2000/svg">
  <path d="M 933 404  C 936.36 404  939 406.64  939 410  C 939 413.36  936.36 416  933 416  C 929.64 416  927 413.36  927 410  C 927 406.64  929.64 404  933 404  Z " fill-rule="nonzero" fill="#f0f0f0" stroke="none" />
  <path d="M 933 404.5  C 936.08 404.5  938.5 406.92  938.5 410  C 938.5 413.08  936.08 415.5  933 415.5  C 929.92 415.5  927.5 413.08  927.5 410  C 927.5 406.92  929.92 404.5  933 404.5  Z " stroke-width="1" stroke="#797979" fill="none" />
  <path d="M 933 413  C 931.32 413  930 411.68  930 410  C 930 408.32  931.32 407  933 407  C 934.68 407  936 408.32  936 410  C 936 411.68  934.68 413  933 413  " fill-rule="nonzero" fill="#797979" stroke="none" />
</svg>